# xmcd
# 
# Track frame offsets:
#     150
#     14570
#     33852
#     49267
#     70877
#     81977
#     100347
#     118680
#     133410
#     152202
# 
# Disc length: 2179
# 
# Revision: 0
# Processed by: cddbd v1.5.2PL0 Copyright (c) Steve Scherf et al.
# Submitted via: fre:ac v1.0.31
# 
DISCID=8c08810a
DTITLE=Elis Regina - Folha O Melhor de Elis Regina
DYEAR=1977
DGENRE=MPB
TTITLE0=Caxangá
TTITLE1=Colagem
TTITLE2=Vecchio novo
TTITLE3=Morro velho
TTITLE4=Qualquer dia
TTITLE5=Romaria
TTITLE6=A dama do apocalipse
TTITLE7=Cartomante
TTITLE8=Sentimental eu fico
TTITLE9=Transversal do tempo
EXTD=Elis (1977)
EXTT0=
EXTT1=
EXTT2=
EXTT3=
EXTT4=
EXTT5=
EXTT6=
EXTT7=
EXTT8=
EXTT9=
PLAYORDER=
